<svg xmlns="http://www.w3.org/2000/svg" xmlns:xlink="http://www.w3.org/1999/xlink" width="540" height="494.2"><rect width="540" height="494.2" rx="5" ry="5" class="a"/><svg y="0%" x="0%"><circle cx="20" cy="20" r="6" fill="#ff5f58"/><circle cx="40" cy="20" r="6" fill="#ffbd2e"/><circle cx="60" cy="20" r="6" fill="#18c132"/></svg><svg height="434.2" viewBox="0 0 50 43.42" width="500" x="15" xmlns="http://www.w3.org/2000/svg" xmlns:xlink="http://www.w3.org/1999/xlink" y="50"><style>@keyframes n{0%{transform:translateX(0)}2.8%{transform:translateX(-100px)}2.9%{transform:translateX(-250px)}8.7%{transform:translateX(-300px)}9%{transform:translateX(-350px)}12.2%{transform:translateX(-400px)}13.8%{transform:translateX(-450px)}16.4%{transform:translateX(-650px)}17.3%{transform:translateX(-950px)}23.6%{transform:translateX(-1000px)}24.1%{transform:translateX(-1050px)}25.3%{transform:translateX(-1100px)}25.8%{transform:translateX(-1150px)}29.8%{transform:translateX(-1200px)}31%{transform:translateX(-1250px)}32.8%{transform:translateX(-1300px)}35.1%{transform:translateX(-1350px)}41%{transform:translateX(-1600px)}41.8%{transform:translateX(-1900px)}41.9%{transform:translateX(-1950px)}46.3%{transform:translateX(-2000px)}46.8%{transform:translateX(-2050px)}48.8%{transform:translateX(-2100px)}50.9%{transform:translateX(-2150px)}53.5%{transform:translateX(-2200px)}56.7%{transform:translateX(-2250px)}59.2%{transform:translateX(-2300px)}63.8%{transform:translateX(-2350px)}65.6%{transform:translateX(-2400px)}69.4%{transform:translateX(-2450px)}70.4%{transform:translateX(-2500px)}71.4%{transform:translateX(-2550px)}73.8%{transform:translateX(-2750px)}74.7%{transform:translateX(-2800px)}78.8%{transform:translateX(-2850px)}82.9%{transform:translateX(-2900px)}87%{transform:translateX(-2950px)}89.6%{transform:translateX(-3200px)}89.7%{transform:translateX(-3250px)}to{transform:translateX(-3300px)}}.a{fill:#282a36}.g{fill:#ff6ac1}.h{fill:#ff5c57;font-weight:700}.i{fill:#5af78e}.j{fill:#eff0eb}</style><g font-size="1.67" font-family="Monaco,Consolas,Menlo,'Bitstream Vera Sans Mono','Powerline Symbols',monospace"><defs><symbol id="1"><text y="1.67" fill="#57c7ff">~</text></symbol><symbol id="2"><text y="1.67" class="g">❯</text></symbol><symbol id="3"><text y="1.67" class="g">❯</text><text x="2.004" y="1.67" class="h">t</text></symbol><symbol id="4"><text y="1.67" class="g">❯</text><text x="2.004" y="1.67" class="h">te</text></symbol><symbol id="5"><text y="1.67" class="g">❯</text><text x="2.004" y="1.67" class="h">tem</text></symbol><symbol id="6"><text y="1.67" class="g">❯</text><text x="2.004" y="1.67" class="i">temp</text></symbol><symbol id="7"><text y="1.67" class="j">{</text><text x="2.004" y="1.67" class="j">main:</text><text x="8.016" y="1.67" class="j">42,</text><text x="12.024" y="1.67" class="j">cores:</text><text x="19.038" y="1.67" class="j">[</text><text x="21.042" y="1.67" class="j">41,</text><text x="25.05" y="1.67" class="j">43</text><text x="28.056" y="1.67" class="j">],</text><text x="31.062" y="1.67" class="j">max:</text><text x="36.072" y="1.67" class="j">43</text><text x="39.078" y="1.67" class="j">}</text></symbol><symbol id="8"><text y="1.67" class="g">❯</text><text x="2.004" y="1.67" class="i">temp</text><text x="7.014" y="1.67" class="j">-</text></symbol><symbol id="9"><text y="1.67" class="g">❯</text><text x="2.004" y="1.67" class="i">temp</text><text x="7.014" y="1.67" class="j">-fc</text></symbol><symbol id="10"><text x="1.002" y="1.67" class="i">{</text><text x="3.006" y="1.67" class="i">main:</text><text x="9.018" y="1.67" class="i">107,</text><text x="14.028" y="1.67" class="i">cores:</text><text x="21.042" y="1.67" class="i">[</text><text x="23.046" y="1.67" class="i">106,</text><text x="28.056" y="1.67" class="i">108</text><text x="32.064" y="1.67" class="i">],</text><text x="35.07" y="1.67" class="i">max:</text><text x="40.08" y="1.67" class="i">108</text><text x="44.088" y="1.67" class="i">}</text></symbol><symbol id="11"><text y="1.67" class="g">❯</text><text x="2.004" y="1.67" class="i">temp</text><text x="7.014" y="1.67" class="j">-cl</text></symbol><symbol id="12"><text y="1.67" class="g">❯</text><text x="2.004" y="1.67" class="i">temp</text><text x="7.014" y="1.67" class="j">-cl</text><text x="11.022" y="1.67" class="j">500</text></symbol><symbol id="13"><text x="1.002" y="1.67" class="i">{</text><text x="3.006" y="1.67" class="i">main:</text><text x="9.018" y="1.67" class="i">41,</text><text x="13.026" y="1.67" class="i">cores:</text><text x="20.04" y="1.67" class="i">[</text><text x="22.044" y="1.67" class="i">41,</text><text x="26.052" y="1.67" class="i">41</text><text x="29.058" y="1.67" class="i">],</text><text x="32.064" y="1.67" class="i">max:</text><text x="37.074" y="1.67" class="i">41.375</text><text x="44.088" y="1.67" class="i">}</text></symbol><symbol id="14"><text x="1.002" y="1.67" class="i">{</text><text x="3.006" y="1.67" class="i">main:</text><text x="9.018" y="1.67" class="i">44,</text><text x="13.026" y="1.67" class="i">cores:</text><text x="20.04" y="1.67" class="i">[</text><text x="22.044" y="1.67" class="i">43,</text><text x="26.052" y="1.67" class="i">45</text><text x="29.058" y="1.67" class="i">],</text><text x="32.064" y="1.67" class="i">max:</text><text x="37.074" y="1.67" class="i">45</text><text x="40.08" y="1.67" class="i">}</text></symbol><symbol id="15"><text x="1.002" y="1.67" class="i">{</text><text x="3.006" y="1.67" class="i">main:</text><text x="9.018" y="1.67" class="i">42,</text><text x="13.026" y="1.67" class="i">cores:</text><text x="20.04" y="1.67" class="i">[</text><text x="22.044" y="1.67" class="i">41,</text><text x="26.052" y="1.67" class="i">43</text><text x="29.058" y="1.67" class="i">],</text><text x="32.064" y="1.67" class="i">max:</text><text x="37.074" y="1.67" class="i">43</text><text x="40.08" y="1.67" class="i">}</text></symbol><symbol id="16"><text y="1.67" class="j">^C</text></symbol><symbol id="17"><text y="1.67" fill="#ff5c57">❯</text></symbol><symbol id="a"><path fill="transparent" d="M0 0h50v21H0z"/></symbol><symbol id="b"><path fill="#97979b" d="M0 0h1.102v2.171H0z"/></symbol></defs><path class="a" d="M0 0h50v43.42H0z"/><g style="animation-duration:12.627684s;animation-iteration-count:infinite;animation-name:n;animation-timing-function:steps(1,end)"><svg width="3350"><svg><use xlink:href="#a"/><use xlink:href="#b" x="-.004"/></svg><svg x="50"><use xlink:href="#a"/><use xlink:href="#b" x="-.004"/></svg><svg x="100"><use xlink:href="#a"/><use xlink:href="#b" x="-.004"/></svg><svg x="150"><use xlink:href="#a"/><use xlink:href="#b" x="1.996" y="4.317"/><use xlink:href="#1" y="2.171"/><use xlink:href="#2" y="4.342"/></svg><svg x="200"><use xlink:href="#a"/><use xlink:href="#b" x="1.996" y="4.317"/><use xlink:href="#1" y="2.171"/><use xlink:href="#2" y="4.342"/></svg><svg x="250"><use xlink:href="#a"/><use xlink:href="#b" x="1.996" y="4.317"/><use xlink:href="#1" y="2.171"/><use xlink:href="#2" y="4.342"/></svg><svg x="300"><use xlink:href="#a"/><use xlink:href="#b" x="2.996" y="4.317"/><use xlink:href="#1" y="2.171"/><use xlink:href="#3" y="4.342"/></svg><svg x="350"><use xlink:href="#a"/><use xlink:href="#b" x="3.996" y="4.317"/><use xlink:href="#1" y="2.171"/><use xlink:href="#4" y="4.342"/></svg><svg x="400"><use xlink:href="#a"/><use xlink:href="#b" x="4.996" y="4.317"/><use xlink:href="#1" y="2.171"/><use xlink:href="#5" y="4.342"/></svg><svg x="450"><use xlink:href="#a"/><use xlink:href="#b" x="5.996" y="4.317"/><use xlink:href="#1" y="2.171"/><use xlink:href="#6" y="4.342"/></svg><svg x="500"><use xlink:href="#a"/><use xlink:href="#b" x="5.996" y="4.317"/><use xlink:href="#1" y="2.171"/><use xlink:href="#6" y="4.342"/></svg><svg x="550"><use xlink:href="#a"/><use xlink:href="#b" x="-.004" y="6.488"/><use xlink:href="#1" y="2.171"/><use xlink:href="#6" y="4.342"/></svg><svg x="600"><use xlink:href="#a"/><use xlink:href="#b" x="-.004" y="6.488"/><use xlink:href="#1" y="2.171"/><use xlink:href="#6" y="4.342"/></svg><svg x="650"><use xlink:href="#a"/><use xlink:href="#b" x="-.004" y="6.488"/><use xlink:href="#1" y="2.171"/><use xlink:href="#6" y="4.342"/></svg><svg x="700"><use xlink:href="#a"/><use xlink:href="#b" x="-.004" y="8.659"/><use xlink:href="#1" y="2.171"/><use xlink:href="#6" y="4.342"/><use xlink:href="#7" y="6.513"/></svg><svg x="750"><use xlink:href="#a"/><use xlink:href="#b" x="-.004" y="8.659"/><use xlink:href="#1" y="2.171"/><use xlink:href="#6" y="4.342"/><use xlink:href="#7" y="6.513"/></svg><svg x="800"><use xlink:href="#a"/><use xlink:href="#b" x="-.004" y="8.659"/><use xlink:href="#1" y="2.171"/><use xlink:href="#6" y="4.342"/><use xlink:href="#7" y="6.513"/></svg><svg x="850"><use xlink:href="#a"/><use xlink:href="#b" x="-.004" y="8.659"/><use xlink:href="#1" y="2.171"/><use xlink:href="#6" y="4.342"/><use xlink:href="#7" y="6.513"/></svg><svg x="900"><use xlink:href="#a"/><use xlink:href="#b" x="1.996" y="13.001"/><use xlink:href="#1" y="2.171"/><use xlink:href="#6" y="4.342"/><use xlink:href="#7" y="6.513"/><use xlink:href="#1" y="10.855"/><use xlink:href="#2" y="13.026"/></svg><svg x="950"><use xlink:href="#a"/><use xlink:href="#b" x="1.996" y="13.001"/><use xlink:href="#1" y="2.171"/><use xlink:href="#6" y="4.342"/><use xlink:href="#7" y="6.513"/><use xlink:href="#1" y="10.855"/><use xlink:href="#2" y="13.026"/></svg><svg x="1000"><use xlink:href="#a"/><use xlink:href="#b" x="2.996" y="13.001"/><use xlink:href="#1" y="2.171"/><use xlink:href="#6" y="4.342"/><use xlink:href="#7" y="6.513"/><use xlink:href="#1" y="10.855"/><use xlink:href="#3" y="13.026"/></svg><svg x="1050"><use xlink:href="#a"/><use xlink:href="#b" x="3.996" y="13.001"/><use xlink:href="#1" y="2.171"/><use xlink:href="#6" y="4.342"/><use xlink:href="#7" y="6.513"/><use xlink:href="#1" y="10.855"/><use xlink:href="#4" y="13.026"/></svg><svg x="1100"><use xlink:href="#a"/><use xlink:href="#b" x="4.996" y="13.001"/><use xlink:href="#1" y="2.171"/><use xlink:href="#6" y="4.342"/><use xlink:href="#7" y="6.513"/><use xlink:href="#1" y="10.855"/><use xlink:href="#5" y="13.026"/></svg><svg x="1150"><use xlink:href="#a"/><use xlink:href="#b" x="5.996" y="13.001"/><use xlink:href="#1" y="2.171"/><use xlink:href="#6" y="4.342"/><use xlink:href="#7" y="6.513"/><use xlink:href="#1" y="10.855"/><use xlink:href="#6" y="13.026"/></svg><svg x="1200"><use xlink:href="#a"/><use xlink:href="#b" x="6.996" y="13.001"/><use xlink:href="#1" y="2.171"/><use xlink:href="#6" y="4.342"/><use xlink:href="#7" y="6.513"/><use xlink:href="#1" y="10.855"/><use xlink:href="#6" y="13.026"/></svg><svg x="1250"><use xlink:href="#a"/><use xlink:href="#b" x="7.996" y="13.001"/><use xlink:href="#1" y="2.171"/><use xlink:href="#6" y="4.342"/><use xlink:href="#7" y="6.513"/><use xlink:href="#1" y="10.855"/><use xlink:href="#8" y="13.026"/></svg><svg x="1300"><use xlink:href="#a"/><use xlink:href="#b" x="8.996" y="13.001"/><use xlink:href="#1" y="2.171"/><use xlink:href="#6" y="4.342"/><use xlink:href="#7" y="6.513"/><use xlink:href="#1" y="10.855"/><text y="14.696" class="g">❯</text><text x="2.004" y="14.696" class="i">temp</text><text x="7.014" y="14.696" class="j">-f</text></svg><svg x="1350"><use xlink:href="#a"/><use xlink:href="#b" x="9.996" y="13.001"/><use xlink:href="#1" y="2.171"/><use xlink:href="#6" y="4.342"/><use xlink:href="#7" y="6.513"/><use xlink:href="#1" y="10.855"/><use xlink:href="#9" y="13.026"/></svg><svg x="1400"><use xlink:href="#a"/><use xlink:href="#b" x="9.996" y="13.001"/><use xlink:href="#1" y="2.171"/><use xlink:href="#6" y="4.342"/><use xlink:href="#7" y="6.513"/><use xlink:href="#1" y="10.855"/><use xlink:href="#9" y="13.026"/></svg><svg x="1450"><use xlink:href="#a"/><use xlink:href="#b" x="-.004" y="15.172"/><use xlink:href="#1" y="2.171"/><use xlink:href="#6" y="4.342"/><use xlink:href="#7" y="6.513"/><use xlink:href="#1" y="10.855"/><use xlink:href="#9" y="13.026"/></svg><svg x="1500"><use xlink:href="#a"/><use xlink:href="#b" x="-.004" y="15.172"/><use xlink:href="#1" y="2.171"/><use xlink:href="#6" y="4.342"/><use xlink:href="#7" y="6.513"/><use xlink:href="#1" y="10.855"/><use xlink:href="#9" y="13.026"/></svg><svg x="1550"><use xlink:href="#a"/><use xlink:href="#b" x="-.004" y="15.172"/><use xlink:href="#1" y="2.171"/><use xlink:href="#6" y="4.342"/><use xlink:href="#7" y="6.513"/><use xlink:href="#1" y="10.855"/><use xlink:href="#9" y="13.026"/></svg><svg x="1600"><use xlink:href="#a"/><use xlink:href="#b" x="-.004" y="15.172"/><use xlink:href="#1" y="2.171"/><use xlink:href="#6" y="4.342"/><use xlink:href="#7" y="6.513"/><use xlink:href="#1" y="10.855"/><use xlink:href="#9" y="13.026"/></svg><svg x="1650"><use xlink:href="#a"/><use xlink:href="#b" x="-.004" y="17.343"/><use xlink:href="#1" y="2.171"/><use xlink:href="#6" y="4.342"/><use xlink:href="#7" y="6.513"/><use xlink:href="#1" y="10.855"/><use xlink:href="#9" y="13.026"/><use xlink:href="#10" y="15.197"/></svg><svg x="1700"><use xlink:href="#a"/><use xlink:href="#b" x="-.004" y="17.343"/><use xlink:href="#1" y="2.171"/><use xlink:href="#6" y="4.342"/><use xlink:href="#7" y="6.513"/><use xlink:href="#1" y="10.855"/><use xlink:href="#9" y="13.026"/><use xlink:href="#10" y="15.197"/></svg><svg x="1750"><use xlink:href="#a"/><use xlink:href="#b" x="-.004" y="17.343"/><use xlink:href="#1" y="2.171"/><use xlink:href="#6" y="4.342"/><use xlink:href="#7" y="6.513"/><use xlink:href="#1" y="10.855"/><use xlink:href="#9" y="13.026"/><use xlink:href="#10" y="15.197"/></svg><svg x="1800"><use xlink:href="#a"/><use xlink:href="#b" x="-.004" y="17.343"/><use xlink:href="#1" y="2.171"/><use xlink:href="#6" y="4.342"/><use xlink:href="#7" y="6.513"/><use xlink:href="#1" y="10.855"/><use xlink:href="#9" y="13.026"/><use xlink:href="#10" y="15.197"/></svg><svg x="1850"><use xlink:href="#a"/><use xlink:href="#b" x="1.996" y="21.685"/><use xlink:href="#1" y="2.171"/><use xlink:href="#6" y="4.342"/><use xlink:href="#7" y="6.513"/><use xlink:href="#1" y="10.855"/><use xlink:href="#9" y="13.026"/><use xlink:href="#10" y="15.197"/><use xlink:href="#1" y="19.539"/><use xlink:href="#2" y="21.71"/></svg><svg x="1900"><use xlink:href="#a"/><use xlink:href="#b" x="1.996" y="21.685"/><use xlink:href="#1" y="2.171"/><use xlink:href="#6" y="4.342"/><use xlink:href="#7" y="6.513"/><use xlink:href="#1" y="10.855"/><use xlink:href="#9" y="13.026"/><use xlink:href="#10" y="15.197"/><use xlink:href="#1" y="19.539"/><use xlink:href="#2" y="21.71"/></svg><svg x="1950"><use xlink:href="#a"/><use xlink:href="#b" x="1.996" y="21.685"/><use xlink:href="#1" y="2.171"/><use xlink:href="#6" y="4.342"/><use xlink:href="#7" y="6.513"/><use xlink:href="#1" y="10.855"/><use xlink:href="#9" y="13.026"/><use xlink:href="#10" y="15.197"/><use xlink:href="#1" y="19.539"/><use xlink:href="#2" y="21.71"/></svg><svg x="2000"><use xlink:href="#a"/><use xlink:href="#b" x="2.996" y="21.685"/><use xlink:href="#1" y="2.171"/><use xlink:href="#6" y="4.342"/><use xlink:href="#7" y="6.513"/><use xlink:href="#1" y="10.855"/><use xlink:href="#9" y="13.026"/><use xlink:href="#10" y="15.197"/><use xlink:href="#1" y="19.539"/><use xlink:href="#3" y="21.71"/></svg><svg x="2050"><use xlink:href="#a"/><use xlink:href="#b" x="3.996" y="21.685"/><use xlink:href="#1" y="2.171"/><use xlink:href="#6" y="4.342"/><use xlink:href="#7" y="6.513"/><use xlink:href="#1" y="10.855"/><use xlink:href="#9" y="13.026"/><use xlink:href="#10" y="15.197"/><use xlink:href="#1" y="19.539"/><use xlink:href="#4" y="21.71"/></svg><svg x="2100"><use xlink:href="#a"/><use xlink:href="#b" x="4.996" y="21.685"/><use xlink:href="#1" y="2.171"/><use xlink:href="#6" y="4.342"/><use xlink:href="#7" y="6.513"/><use xlink:href="#1" y="10.855"/><use xlink:href="#9" y="13.026"/><use xlink:href="#10" y="15.197"/><use xlink:href="#1" y="19.539"/><use xlink:href="#5" y="21.71"/></svg><svg x="2150"><use xlink:href="#a"/><use xlink:href="#b" x="5.996" y="21.685"/><use xlink:href="#1" y="2.171"/><use xlink:href="#6" y="4.342"/><use xlink:href="#7" y="6.513"/><use xlink:href="#1" y="10.855"/><use xlink:href="#9" y="13.026"/><use xlink:href="#10" y="15.197"/><use xlink:href="#1" y="19.539"/><use xlink:href="#6" y="21.71"/></svg><svg x="2200"><use xlink:href="#a"/><use xlink:href="#b" x="6.996" y="21.685"/><use xlink:href="#1" y="2.171"/><use xlink:href="#6" y="4.342"/><use xlink:href="#7" y="6.513"/><use xlink:href="#1" y="10.855"/><use xlink:href="#9" y="13.026"/><use xlink:href="#10" y="15.197"/><use xlink:href="#1" y="19.539"/><use xlink:href="#6" y="21.71"/></svg><svg x="2250"><use xlink:href="#a"/><use xlink:href="#b" x="7.996" y="21.685"/><use xlink:href="#1" y="2.171"/><use xlink:href="#6" y="4.342"/><use xlink:href="#7" y="6.513"/><use xlink:href="#1" y="10.855"/><use xlink:href="#9" y="13.026"/><use xlink:href="#10" y="15.197"/><use xlink:href="#1" y="19.539"/><use xlink:href="#8" y="21.71"/></svg><svg x="2300"><use xlink:href="#a"/><use xlink:href="#b" x="8.996" y="21.685"/><use xlink:href="#1" y="2.171"/><use xlink:href="#6" y="4.342"/><use xlink:href="#7" y="6.513"/><use xlink:href="#1" y="10.855"/><use xlink:href="#9" y="13.026"/><use xlink:href="#10" y="15.197"/><use xlink:href="#1" y="19.539"/><text y="23.38" class="g">❯</text><text x="2.004" y="23.38" class="i">temp</text><text x="7.014" y="23.38" class="j">-c</text></svg><svg x="2350"><use xlink:href="#a"/><use xlink:href="#b" x="9.996" y="21.685"/><use xlink:href="#1" y="2.171"/><use xlink:href="#6" y="4.342"/><use xlink:href="#7" y="6.513"/><use xlink:href="#1" y="10.855"/><use xlink:href="#9" y="13.026"/><use xlink:href="#10" y="15.197"/><use xlink:href="#1" y="19.539"/><use xlink:href="#11" y="21.71"/></svg><svg x="2400"><use xlink:href="#a"/><use xlink:href="#b" x="10.996" y="21.685"/><use xlink:href="#1" y="2.171"/><use xlink:href="#6" y="4.342"/><use xlink:href="#7" y="6.513"/><use xlink:href="#1" y="10.855"/><use xlink:href="#9" y="13.026"/><use xlink:href="#10" y="15.197"/><use xlink:href="#1" y="19.539"/><use xlink:href="#11" y="21.71"/></svg><svg x="2450"><use xlink:href="#a"/><use xlink:href="#b" x="11.996" y="21.685"/><use xlink:href="#1" y="2.171"/><use xlink:href="#6" y="4.342"/><use xlink:href="#7" y="6.513"/><use xlink:href="#1" y="10.855"/><use xlink:href="#9" y="13.026"/><use xlink:href="#10" y="15.197"/><use xlink:href="#1" y="19.539"/><text y="23.38" class="g">❯</text><text x="2.004" y="23.38" class="i">temp</text><text x="7.014" y="23.38" class="j">-cl</text><text x="11.022" y="23.38" class="j">5</text></svg><svg x="2500"><use xlink:href="#a"/><use xlink:href="#b" x="12.996" y="21.685"/><use xlink:href="#1" y="2.171"/><use xlink:href="#6" y="4.342"/><use xlink:href="#7" y="6.513"/><use xlink:href="#1" y="10.855"/><use xlink:href="#9" y="13.026"/><use xlink:href="#10" y="15.197"/><use xlink:href="#1" y="19.539"/><text y="23.38" class="g">❯</text><text x="2.004" y="23.38" class="i">temp</text><text x="7.014" y="23.38" class="j">-cl</text><text x="11.022" y="23.38" class="j">50</text></svg><svg x="2550"><use xlink:href="#a"/><use xlink:href="#b" x="13.996" y="21.685"/><use xlink:href="#1" y="2.171"/><use xlink:href="#6" y="4.342"/><use xlink:href="#7" y="6.513"/><use xlink:href="#1" y="10.855"/><use xlink:href="#9" y="13.026"/><use xlink:href="#10" y="15.197"/><use xlink:href="#1" y="19.539"/><use xlink:href="#12" y="21.71"/></svg><svg x="2600"><use xlink:href="#a"/><use xlink:href="#b" x="13.996" y="21.685"/><use xlink:href="#1" y="2.171"/><use xlink:href="#6" y="4.342"/><use xlink:href="#7" y="6.513"/><use xlink:href="#1" y="10.855"/><use xlink:href="#9" y="13.026"/><use xlink:href="#10" y="15.197"/><use xlink:href="#1" y="19.539"/><use xlink:href="#12" y="21.71"/></svg><svg x="2650"><use xlink:href="#a"/><use xlink:href="#b" x="-.004" y="23.856"/><use xlink:href="#1" y="2.171"/><use xlink:href="#6" y="4.342"/><use xlink:href="#7" y="6.513"/><use xlink:href="#1" y="10.855"/><use xlink:href="#9" y="13.026"/><use xlink:href="#10" y="15.197"/><use xlink:href="#1" y="19.539"/><use xlink:href="#12" y="21.71"/></svg><svg x="2700"><use xlink:href="#a"/><use xlink:href="#b" x="-.004" y="23.856"/><use xlink:href="#1" y="2.171"/><use xlink:href="#6" y="4.342"/><use xlink:href="#7" y="6.513"/><use xlink:href="#1" y="10.855"/><use xlink:href="#9" y="13.026"/><use xlink:href="#10" y="15.197"/><use xlink:href="#1" y="19.539"/><use xlink:href="#12" y="21.71"/></svg><svg x="2750"><use xlink:href="#a"/><use xlink:href="#b" x="-.004" y="23.856"/><use xlink:href="#1" y="2.171"/><use xlink:href="#6" y="4.342"/><use xlink:href="#7" y="6.513"/><use xlink:href="#1" y="10.855"/><use xlink:href="#9" y="13.026"/><use xlink:href="#10" y="15.197"/><use xlink:href="#1" y="19.539"/><use xlink:href="#12" y="21.71"/></svg><svg x="2800"><use xlink:href="#a"/><use xlink:href="#b" x="-.004" y="26.027"/><use xlink:href="#1" y="2.171"/><use xlink:href="#6" y="4.342"/><use xlink:href="#7" y="6.513"/><use xlink:href="#1" y="10.855"/><use xlink:href="#9" y="13.026"/><use xlink:href="#10" y="15.197"/><use xlink:href="#1" y="19.539"/><use xlink:href="#12" y="21.71"/><use xlink:href="#13" y="23.881"/></svg><svg x="2850"><use xlink:href="#a"/><use xlink:href="#b" x="-.004" y="28.198"/><use xlink:href="#1" y="2.171"/><use xlink:href="#6" y="4.342"/><use xlink:href="#7" y="6.513"/><use xlink:href="#1" y="10.855"/><use xlink:href="#9" y="13.026"/><use xlink:href="#10" y="15.197"/><use xlink:href="#1" y="19.539"/><use xlink:href="#12" y="21.71"/><use xlink:href="#13" y="23.881"/><use xlink:href="#14" y="26.052"/></svg><svg x="2900"><use xlink:href="#a"/><use xlink:href="#b" x="-.004" y="30.369"/><use xlink:href="#1" y="2.171"/><use xlink:href="#6" y="4.342"/><use xlink:href="#7" y="6.513"/><use xlink:href="#1" y="10.855"/><use xlink:href="#9" y="13.026"/><use xlink:href="#10" y="15.197"/><use xlink:href="#1" y="19.539"/><use xlink:href="#12" y="21.71"/><use xlink:href="#13" y="23.881"/><use xlink:href="#14" y="26.052"/><use xlink:href="#14" y="28.223"/></svg><svg x="2950"><use xlink:href="#a"/><use xlink:href="#b" x="-.004" y="32.54"/><use xlink:href="#1" y="2.171"/><use xlink:href="#6" y="4.342"/><use xlink:href="#7" y="6.513"/><use xlink:href="#1" y="10.855"/><use xlink:href="#9" y="13.026"/><use xlink:href="#10" y="15.197"/><use xlink:href="#1" y="19.539"/><use xlink:href="#12" y="21.71"/><use xlink:href="#13" y="23.881"/><use xlink:href="#14" y="26.052"/><use xlink:href="#14" y="28.223"/><use xlink:href="#15" y="30.394"/></svg><svg x="3000"><use xlink:href="#a"/><use xlink:href="#b" x="1.996" y="32.54"/><use xlink:href="#1" y="2.171"/><use xlink:href="#6" y="4.342"/><use xlink:href="#7" y="6.513"/><use xlink:href="#1" y="10.855"/><use xlink:href="#9" y="13.026"/><use xlink:href="#10" y="15.197"/><use xlink:href="#1" y="19.539"/><use xlink:href="#12" y="21.71"/><use xlink:href="#13" y="23.881"/><use xlink:href="#14" y="26.052"/><use xlink:href="#14" y="28.223"/><use xlink:href="#15" y="30.394"/><use xlink:href="#16" y="32.565"/></svg><svg x="3050"><use xlink:href="#a"/><use xlink:href="#b" x="-.004" y="34.711"/><use xlink:href="#1" y="2.171"/><use xlink:href="#6" y="4.342"/><use xlink:href="#7" y="6.513"/><use xlink:href="#1" y="10.855"/><use xlink:href="#9" y="13.026"/><use xlink:href="#10" y="15.197"/><use xlink:href="#1" y="19.539"/><use xlink:href="#12" y="21.71"/><use xlink:href="#13" y="23.881"/><use xlink:href="#14" y="26.052"/><use xlink:href="#14" y="28.223"/><use xlink:href="#15" y="30.394"/><use xlink:href="#16" y="32.565"/></svg><svg x="3100"><use xlink:href="#a"/><use xlink:href="#b" x="-.004" y="34.711"/><use xlink:href="#1" y="2.171"/><use xlink:href="#6" y="4.342"/><use xlink:href="#7" y="6.513"/><use xlink:href="#1" y="10.855"/><use xlink:href="#9" y="13.026"/><use xlink:href="#10" y="15.197"/><use xlink:href="#1" y="19.539"/><use xlink:href="#12" y="21.71"/><use xlink:href="#13" y="23.881"/><use xlink:href="#14" y="26.052"/><use xlink:href="#14" y="28.223"/><use xlink:href="#15" y="30.394"/><use xlink:href="#16" y="32.565"/></svg><svg x="3150"><use xlink:href="#a"/><use xlink:href="#b" x="-.004" y="34.711"/><use xlink:href="#1" y="2.171"/><use xlink:href="#6" y="4.342"/><use xlink:href="#7" y="6.513"/><use xlink:href="#1" y="10.855"/><use xlink:href="#9" y="13.026"/><use xlink:href="#10" y="15.197"/><use xlink:href="#1" y="19.539"/><use xlink:href="#12" y="21.71"/><use xlink:href="#13" y="23.881"/><use xlink:href="#14" y="26.052"/><use xlink:href="#14" y="28.223"/><use xlink:href="#15" y="30.394"/><use xlink:href="#16" y="32.565"/></svg><svg x="3200"><use xlink:href="#a"/><use xlink:href="#b" x="1.996" y="39.053"/><use xlink:href="#1" y="2.171"/><use xlink:href="#6" y="4.342"/><use xlink:href="#7" y="6.513"/><use xlink:href="#1" y="10.855"/><use xlink:href="#9" y="13.026"/><use xlink:href="#10" y="15.197"/><use xlink:href="#1" y="19.539"/><use xlink:href="#12" y="21.71"/><use xlink:href="#13" y="23.881"/><use xlink:href="#14" y="26.052"/><use xlink:href="#14" y="28.223"/><use xlink:href="#15" y="30.394"/><use xlink:href="#16" y="32.565"/><use xlink:href="#1" y="36.907"/><use xlink:href="#17" y="39.078"/></svg><svg x="3250"><use xlink:href="#a"/><use xlink:href="#b" x="1.996" y="39.053"/><use xlink:href="#1" y="2.171"/><use xlink:href="#6" y="4.342"/><use xlink:href="#7" y="6.513"/><use xlink:href="#1" y="10.855"/><use xlink:href="#9" y="13.026"/><use xlink:href="#10" y="15.197"/><use xlink:href="#1" y="19.539"/><use xlink:href="#12" y="21.71"/><use xlink:href="#13" y="23.881"/><use xlink:href="#14" y="26.052"/><use xlink:href="#14" y="28.223"/><use xlink:href="#15" y="30.394"/><use xlink:href="#16" y="32.565"/><use xlink:href="#1" y="36.907"/><use xlink:href="#17" y="39.078"/></svg><svg x="3300"><use xlink:href="#a"/><use xlink:href="#b" x="-.004" y="41.224"/><use xlink:href="#1" y="2.171"/><use xlink:href="#6" y="4.342"/><use xlink:href="#7" y="6.513"/><use xlink:href="#1" y="10.855"/><use xlink:href="#9" y="13.026"/><use xlink:href="#10" y="15.197"/><use xlink:href="#1" y="19.539"/><use xlink:href="#12" y="21.71"/><use xlink:href="#13" y="23.881"/><use xlink:href="#14" y="26.052"/><use xlink:href="#14" y="28.223"/><use xlink:href="#15" y="30.394"/><use xlink:href="#16" y="32.565"/><use xlink:href="#1" y="36.907"/><use xlink:href="#17" y="39.078"/></svg></svg></g></g></svg></svg>